Alegreya-BlackItalic.ufo
<glyph name="oslash" format="2">
  <advance width="486"/>
  <unicode hex="00F8"/>
  <anchor x="214" y="0" name="bottom"/>
  <anchor x="243" y="236" name="center"/>
  <anchor x="318" y="41" name="ogonek"/>
  <anchor x="255" y="472" name="top"/>
  <anchor x="495" y="472" name="topright"/>
  <outline>
    <contour>
      <point x="395" y="343" type="line"/>
      <point x="524" y="540" type="line"/>
      <point x="522" y="553" type="line"/>
      <point x="425" y="607" type="line"/>
      <point x="300" y="414" type="line"/>
    </contour>
    <contour>
      <point x="210" y="69" type="line"/>
      <point x="395" y="343" type="line"/>
      <point x="300" y="414" type="line"/>
      <point x="117" y="139" type="line"/>
    </contour>
    <contour>
      <point x="117" y="139" type="line"/>
      <point x="-29" y="-73" type="line"/>
      <point x="-25" y="-83" type="line"/>
      <point x="70" y="-138" type="line"/>
      <point x="210" y="69" type="line"/>
    </contour>
    <component base="o"/>
  </outline>
</glyph>
<glyph name="dcroat" format="2">
  <advance width="529"/>
  <unicode hex="0111"/>
  <anchor x="236" y="0" name="bottom"/>
  <anchor x="265" y="236" name="center"/>
  <anchor x="294" y="472" name="top"/>
  <anchor x="538" y="472" name="topright"/>
  <outline>
    <contour>
      <point x="432" y="586" type="line"/>
      <point x="432" y="586" type="line"/>
      <point x="233" y="587" type="line"/>
      <point x="225" y="529" type="line"/>
      <point x="236" y="519" type="line"/>
      <point x="406" y="520" type="line"/>
      <point x="583" y="521" type="line"/>
      <point x="588" y="576" type="line"/>
      <point x="573" y="591" type="line"/>
    </contour>
    <component base="d"/>
  </outline>
</glyph>
<glyph name="Hbar" format="2">
  <advance width="716"/>
  <unicode hex="0126"/>
  <anchor x="329" y="0" name="bottom"/>
  <anchor x="628" y="172" name="bottomright"/>
  <anchor x="369" y="324" name="center"/>
  <anchor x="408" y="647" name="top"/>
  <anchor x="70" y="647" name="topleft"/>
  <outline>
    <contour>
      <point x="422" y="503" type="curve" smooth="yes"/>
      <point x="257" y="503"/>
      <point x="23" y="504"/>
      <point x="23" y="504" type="curve"/>
      <point x="15" y="446" type="line"/>
      <point x="26" y="436" type="line"/>
      <point x="26" y="436"/>
      <point x="230" y="437"/>
      <point x="396" y="437" type="curve" smooth="yes"/>
      <point x="763" y="438" type="line"/>
      <point x="768" y="493" type="line"/>
      <point x="753" y="508" type="line"/>
      <point x="753" y="508"/>
      <point x="563" y="503"/>
    </contour>
    <component base="H"/>
  </outline>
</glyph>
<glyph name="hbar" format="2">
  <advance width="524"/>
  <unicode hex="0127"/>
  <anchor x="233" y="0" name="bottom"/>
  <anchor x="262" y="236" name="center"/>
  <anchor x="180" y="730" name="top"/>
  <outline>
    <contour>
      <point x="222" y="575" type="line"/>
      <point x="13" y="576" type="line"/>
      <point x="5" y="518" type="line"/>
      <point x="16" y="508" type="line"/>
      <point x="196" y="509" type="line"/>
      <point x="393" y="509" type="line"/>
      <point x="398" y="564" type="line"/>
      <point x="383" y="579" type="line"/>
    </contour>
    <component base="h"/>
  </outline>
</glyph>
<glyph name="Lcaron" format="2">
  <advance width="581"/>
  <unicode hex="013D"/>
  <anchor x="243" y="0" name="bottom"/>
  <anchor x="283" y="324" name="center"/>
  <anchor x="252" y="647" name="top"/>
  <anchor x="573" y="647" name="topright"/>
  <outline>
    <contour>
      <point x="626" y="635" type="curve"/>
      <point x="619" y="647" type="line"/>
      <point x="483" y="633" type="line"/>
      <point x="483" y="633"/>
      <point x="480" y="515"/>
      <point x="463" y="395" type="curve"/>
      <point x="481" y="389" type="line"/>
      <point x="557" y="414" type="line"/>
      <point x="597" y="526"/>
      <point x="626" y="635"/>
    </contour>
    <component base="L"/>
  </outline>
</glyph>
<glyph name="lslash" format="2">
  <advance width="323"/>
  <unicode hex="0142"/>
  <anchor x="133" y="0" name="bottom"/>
  <anchor x="162" y="236" name="center"/>
  <anchor x="197" y="730" name="top"/>
  <anchor x="316" y="472" name="topright"/>
  <outline>
    <contour>
      <point x="190" y="322" type="line"/>
      <point x="190" y="300" type="line"/>
      <point x="347" y="379" type="line"/>
      <point x="316" y="472" type="line"/>
      <point x="307" y="476" type="line"/>
      <point x="190" y="417" type="line"/>
      <point x="190" y="439" type="line"/>
      <point x="-12" y="338" type="line"/>
      <point x="19" y="244" type="line"/>
      <point x="29" y="242" type="line"/>
    </contour>
    <component base="l" xOffset="16"/>
  </outline>
</glyph>
<glyph name="Tbar" format="2">
  <advance width="578"/>
  <unicode hex="0166"/>
  <anchor x="260" y="0" name="bottom"/>
  <anchor x="300" y="324" name="center"/>
  <anchor x="339" y="647" name="top"/>
  <outline>
    <contour>
      <point x="488" y="300" type="line"/>
      <point x="317" y="296" type="line"/>
      <point x="88" y="297" type="line"/>
      <point x="80" y="239" type="line"/>
      <point x="91" y="229" type="line"/>
      <point x="291" y="230" type="line"/>
      <point x="498" y="230" type="line"/>
      <point x="503" y="285" type="line"/>
    </contour>
    <component base="T"/>
  </outline>
</glyph>
<glyph name="tbar" format="2">
  <advance width="331"/>
  <unicode hex="0167"/>
  <anchor x="137" y="0" name="bottom"/>
  <anchor x="166" y="236" name="center"/>
  <anchor x="205" y="562" name="top"/>
  <anchor x="320" y="472" name="topright"/>
  <outline>
    <contour>
      <point x="192" y="296" type="line"/>
      <point x="192" y="296" type="line"/>
      <point x="-7" y="297" type="line"/>
      <point x="-15" y="239" type="line"/>
      <point x="-4" y="229" type="line"/>
      <point x="166" y="230" type="line"/>
      <point x="333" y="230" type="line"/>
      <point x="338" y="285" type="line"/>
      <point x="323" y="300" type="line"/>
    </contour>
    <component base="t"/>
  </outline>
</glyph>
<glyph name="yu-cy" format="2">
  <advance width="748"/>
  <unicode hex="044E"/>
  <anchor x="118" y="0" name="bottom_1"/>
  <anchor x="489" y="0" name="bottom_2"/>
  <anchor x="518" y="236" name="center"/>
  <anchor x="240" y="10" name="ogonek_1"/>
  <anchor x="593" y="41" name="ogonek_2"/>
  <anchor x="176" y="472" name="top_1"/>
  <anchor x="547" y="472" name="top_2"/>
  <anchor x="770" y="472" name="topright"/>
  <outline>
    <contour>
      <point x="166" y="176" type="line"/>
      <point x="234" y="179"/>
      <point x="270" y="180"/>
      <point x="359" y="179" type="curve"/>
      <point x="375" y="280" type="line"/>
      <point x="295" y="275"/>
      <point x="239" y="275"/>
      <point x="180" y="277" type="curve"/>
      <point x="158" y="187" type="line"/>
    </contour>
    <component base="idotless.serifless2" xOffset="9"/>
    <component base="o" xOffset="275"/>
  </outline>
</glyph>
<glyph name="gestroke-cy" format="2">
  <advance width="359"/>
  <unicode hex="0493"/>
  <outline>
    <contour>
      <point x="296" y="161" type="line"/>
      <point x="245" y="128"/>
      <point x="223" y="118"/>
      <point x="204" y="118" type="curve" smooth="yes"/>
      <point x="186" y="118"/>
      <point x="175" y="127"/>
      <point x="175" y="145" type="curve" smooth="yes"/>
      <point x="175" y="158"/>
      <point x="183" y="169"/>
      <point x="201" y="183" type="curve" smooth="yes"/>
      <point x="286" y="248" type="line" smooth="yes"/>
      <point x="340" y="289"/>
      <point x="363" y="325"/>
      <point x="363" y="366" type="curve" smooth="yes"/>
      <point x="363" y="433"/>
      <point x="302" y="482"/>
      <point x="219" y="482" type="curve" smooth="yes"/>
      <point x="136" y="482"/>
      <point x="68" y="432"/>
      <point x="28" y="342" type="curve"/>
      <point x="48" y="315" type="line"/>
      <point x="62" y="312" type="line"/>
      <point x="117" y="346"/>
      <point x="136" y="355"/>
      <point x="154" y="355" type="curve" smooth="yes"/>
      <point x="172" y="355"/>
      <point x="182" y="346"/>
      <point x="182" y="329" type="curve" smooth="yes"/>
      <point x="182" y="316"/>
      <point x="176" y="305"/>
      <point x="158" y="291" type="curve" smooth="yes"/>
      <point x="75" y="227" type="line" smooth="yes"/>
      <point x="15" y="181"/>
      <point x="-6" y="151"/>
      <point x="-6" y="110" type="curve" smooth="yes"/>
      <point x="-6" y="38"/>
      <point x="55" y="-11"/>
      <point x="143" y="-11" type="curve" smooth="yes"/>
      <point x="227" y="-11"/>
      <point x="286" y="34"/>
      <point x="331" y="132" type="curve"/>
      <point x="310" y="158" type="line"/>
    </contour>
    <contour>
      <point x="3.022" y="201" type="line"/>
      <point x="3.022" y="201"/>
      <point x="111.08" y="201.9"/>
      <point x="182.261" y="201.9" type="curve" smooth="yes"/>
      <point x="358.926" y="201.9" type="line"/>
      <point x="369.218" y="266.7" type="line"/>
      <point x="356.354" y="284.7" type="line"/>
      <point x="356.354" y="284.7"/>
      <point x="267.163" y="280.2"/>
      <point x="213.992" y="280.2" type="curve" smooth="yes"/>
      <point x="135.95" y="280.2"/>
      <point x="7.31" y="281.1"/>
      <point x="7.31" y="281.1" type="curve"/>
      <point x="-6.411" y="212.7" type="line"/>
    </contour>
  </outline>
</glyph>
<glyph name="psilivaria" format="2">
  <advance width="424"/>
  <unicode hex="1FCD"/>
  <guideline x="278" y="771" angle="0"/>
  <guideline x="275" y="508" angle="0"/>
  <anchor x="232" y="472" name="_top"/>
  <anchor x="272" y="771" name="top"/>
  <outline>
    <contour>
      <point x="273" y="735" type="line"/>
      <point x="330" y="529" type="line"/>
      <point x="351" y="519" type="line"/>
      <point x="416" y="535" type="line"/>
      <point x="411" y="606"/>
      <point x="413" y="685"/>
      <point x="411" y="761" type="curve"/>
      <point x="400" y="771" type="line"/>
      <point x="282" y="748" type="line"/>
    </contour>
    <contour>
      <point x="103.172" y="710.296" type="curve"/>
      <point x="102.189" y="699.702" type="line"/>
      <point x="125.57" y="683.599"/>
      <point x="137.741" y="664.604"/>
      <point x="139.567" y="643.748" type="curve" smooth="yes"/>
      <point x="141.891" y="617.204"/>
      <point x="126.369" y="587.187"/>
      <point x="96.378" y="558.769" type="curve"/>
      <point x="98.121" y="538.861" type="line"/>
      <point x="148.426" y="509.831" type="line"/>
      <point x="227.167" y="559.712"/>
      <point x="272.964" y="625.814"/>
      <point x="267.652" y="686.486" type="curve" smooth="yes"/>
      <point x="263.834" y="730.094"/>
      <point x="234.717" y="757.158"/>
      <point x="190.161" y="753.257" type="curve" smooth="yes"/>
      <point x="163.617" y="750.933"/>
      <point x="124.264" y="731.248"/>
    </contour>
  </outline>
</glyph>
<glyph name="psilioxia" format="2">
  <advance width="411"/>
  <unicode hex="1FCE"/>
  <guideline x="276" y="508" angle="0"/>
  <anchor x="233" y="472" name="_top"/>
  <anchor x="324" y="767" name="top"/>
  <outline>
    <contour>
      <point x="482" y="705" type="line"/>
      <point x="475" y="720" type="line"/>
      <point x="365" y="767" type="line"/>
      <point x="351" y="759" type="line"/>
      <point x="336" y="686"/>
      <point x="319" y="609"/>
      <point x="300" y="540" type="curve"/>
      <point x="360" y="510" type="line"/>
      <point x="382" y="515" type="line"/>
    </contour>
    <contour>
      <point x="142.172" y="712.296" type="curve"/>
      <point x="141.189" y="701.702" type="line"/>
      <point x="164.57" y="685.599"/>
      <point x="176.741" y="666.604"/>
      <point x="178.567" y="645.748" type="curve" smooth="yes"/>
      <point x="180.891" y="619.204"/>
      <point x="165.369" y="589.187"/>
      <point x="135.378" y="560.769" type="curve"/>
      <point x="137.121" y="540.861" type="line"/>
      <point x="187.426" y="511.831" type="line"/>
      <point x="266.167" y="561.712"/>
      <point x="311.964" y="627.814"/>
      <point x="306.652" y="688.486" type="curve" smooth="yes"/>
      <point x="302.834" y="732.094"/>
      <point x="273.717" y="759.158"/>
      <point x="229.161" y="755.257" type="curve" smooth="yes"/>
      <point x="202.617" y="752.933"/>
      <point x="163.264" y="733.248"/>
    </contour>
  </outline>
</glyph>
<glyph name="dasiaperispomeni" format="2">
  <advance width="448"/>
  <unicode hex="1FDF"/>
  <anchor x="288" y="472" name="_top"/>
  <anchor x="318" y="884" name="top"/>
  <outline>
    <contour>
      <point x="313" y="495" type="curve"/>
      <point x="354" y="518" type="line"/>
      <point x="355" y="534" type="line"/>
      <point x="333" y="555"/>
      <point x="321" y="576"/>
      <point x="321" y="596" type="curve" smooth="yes"/>
      <point x="321" y="614"/>
      <point x="331" y="632"/>
      <point x="352" y="648" type="curve"/>
      <point x="351" y="656" type="line"/>
      <point x="333" y="675"/>
      <point x="295" y="692"/>
      <point x="275" y="692" type="curve" smooth="yes"/>
      <point x="239" y="692"/>
      <point x="212" y="667"/>
      <point x="212" y="630" type="curve" smooth="yes"/>
      <point x="212" y="584"/>
      <point x="252" y="533"/>
    </contour>
    <contour>
      <point x="190.797" y="685.271" type="line"/>
      <point x="205.181" y="685.783" type="line"/>
      <point x="205.181" y="685.783"/>
      <point x="237.487" y="739.141"/>
      <point x="259.063" y="739.909" type="curve" smooth="yes"/>
      <point x="279.74" y="740.645"/>
      <point x="349.152" y="712.511"/>
      <point x="374.324" y="713.407" type="curve"/>
      <point x="389.479" y="717.547" type="line"/>
      <point x="453.224" y="823.332" type="line"/>
      <point x="452.712" y="837.716" type="line"/>
      <point x="397.943" y="884.374" type="line"/>
      <point x="383.559" y="883.862" type="line"/>
      <point x="383.559" y="883.862"/>
      <point x="350.354" y="830.472"/>
      <point x="329.677" y="829.736" type="curve" smooth="yes"/>
      <point x="309" y="829"/>
      <point x="238.689" y="857.102"/>
      <point x="214.416" y="856.238" type="curve"/>
      <point x="199.261" y="852.098" type="line"/>
      <point x="135.516" y="746.313" type="line"/>
      <point x="136.028" y="731.929" type="line"/>
    </contour>
  </outline>
</glyph>
<glyph name="dasiaperispomeni.case" format="2">
  <advance width="448"/>
  <anchor x="249" y="472" name="_top"/>
  <anchor x="302" y="723" name="_topleft"/>
  <anchor x="295" y="884" name="top"/>
  <outline>
    <contour>
      <point x="282" y="492" type="curve"/>
      <point x="302" y="495" type="line"/>
      <point x="330" y="538" type="line"/>
      <point x="308" y="559"/>
      <point x="294" y="582"/>
      <point x="294" y="603" type="curve" smooth="yes"/>
      <point x="294" y="622"/>
      <point x="305" y="638"/>
      <point x="331" y="648" type="curve"/>
      <point x="331" y="657" type="line"/>
      <point x="307" y="680"/>
      <point x="268" y="691"/>
      <point x="243" y="691" type="curve" smooth="yes"/>
      <point x="201" y="691"/>
      <point x="172" y="650"/>
      <point x="172" y="615" type="curve" smooth="yes"/>
      <point x="172" y="571"/>
      <point x="218" y="530"/>
    </contour>
    <contour>
      <point x="167.797" y="685.271" type="line"/>
      <point x="182.181" y="685.783" type="line"/>
      <point x="182.181" y="685.783"/>
      <point x="214.487" y="739.141"/>
      <point x="236.063" y="739.909" type="curve" smooth="yes"/>
      <point x="256.74" y="740.645"/>
      <point x="326.152" y="712.511"/>
      <point x="351.324" y="713.407" type="curve"/>
      <point x="366.479" y="717.547" type="line"/>
      <point x="430.224" y="823.332" type="line"/>
      <point x="429.712" y="837.716" type="line"/>
      <point x="374.943" y="884.374" type="line"/>
      <point x="360.559" y="883.862" type="line"/>
      <point x="360.559" y="883.862"/>
      <point x="327.354" y="830.472"/>
      <point x="306.677" y="829.736" type="curve" smooth="yes"/>
      <point x="286" y="829"/>
      <point x="215.689" y="857.102"/>
      <point x="191.416" y="856.238" type="curve"/>
      <point x="176.261" y="852.098" type="line"/>
      <point x="112.516" y="746.313" type="line"/>
      <point x="113.028" y="731.929" type="line"/>
    </contour>
  </outline>
</glyph>
<glyph name="eth.sc" format="2">
  <advance width="578"/>
  <anchor x="267" y="0" name="bottom"/>
  <anchor x="298" y="252" name="center"/>
  <anchor x="329" y="503" name="top"/>
  <outline>
    <contour>
      <point x="97" y="202" type="line"/>
      <point x="107" y="285" type="line"/>
      <point x="32" y="285" type="line"/>
      <point x="12" y="208" type="line"/>
      <point x="19" y="202" type="line"/>
    </contour>
    <contour>
      <point x="270" y="286" type="line"/>
      <point x="257" y="202" type="line"/>
      <point x="315" y="202" type="line"/>
      <point x="330" y="280" type="line"/>
      <point x="324" y="288" type="line"/>
    </contour>
    <component base="d.sc" xOffset="18"/>
  </outline>
</glyph>
<glyph name="lcaron.sc" format="2">
  <advance width="512"/>
  <anchor x="215" y="0" name="bottom"/>
  <anchor x="236" y="252" name="center"/>
  <anchor x="207" y="503" name="top"/>
  <anchor x="482" y="503" name="topright"/>
  <outline>
    <contour>
      <point x="531" y="495" type="curve"/>
      <point x="525" y="504" type="line"/>
      <point x="406" y="494" type="line"/>
      <point x="406" y="494"/>
      <point x="405" y="401"/>
      <point x="392" y="306" type="curve"/>
      <point x="409" y="301" type="line"/>
      <point x="476" y="322" type="line"/>
      <point x="509" y="410"/>
      <point x="531" y="495"/>
    </contour>
    <component base="l.sc"/>
  </outline>
</glyph>
<glyph name="lslash.sc" format="2">
  <advance width="488"/>
  <anchor x="232" y="0" name="bottom"/>
  <anchor x="253" y="252" name="center"/>
  <anchor x="224" y="503" name="top"/>
  <anchor x="499" y="503" name="topright"/>
  <outline>
    <contour>
      <point x="191" y="222" type="line"/>
      <point x="192" y="203" type="line"/>
      <point x="373" y="288" type="line"/>
      <point x="344" y="369" type="line"/>
      <point x="337" y="372" type="line"/>
      <point x="191" y="304" type="line"/>
      <point x="191" y="323" type="line"/>
      <point x="16" y="240" type="line"/>
      <point x="45" y="158" type="line"/>
      <point x="54" y="157" type="line"/>
    </contour>
    <component base="l.sc" xOffset="17"/>
  </outline>
</glyph>
<glyph name="psilivaria.case" format="2">
  <advance width="428"/>
  <guideline x="278" y="771" angle="0"/>
  <guideline x="275" y="508" angle="0"/>
  <anchor x="232" y="472" name="_top"/>
  <anchor x="374" y="723" name="_topleft"/>
  <anchor x="264" y="760" name="top"/>
  <outline>
    <contour>
      <point x="272" y="726" type="line"/>
      <point x="326" y="519" type="line"/>
      <point x="346" y="508" type="line"/>
      <point x="411" y="524" type="line"/>
      <point x="408" y="595"/>
      <point x="412" y="674"/>
      <point x="411" y="749" type="curve"/>
      <point x="400" y="760" type="line"/>
      <point x="281" y="740" type="line"/>
    </contour>
    <contour>
      <point x="92.172" y="710.296" type="curve"/>
      <point x="91.189" y="699.702" type="line"/>
      <point x="114.57" y="683.599"/>
      <point x="126.741" y="664.604"/>
      <point x="128.567" y="643.748" type="curve" smooth="yes"/>
      <point x="130.891" y="617.204"/>
      <point x="115.369" y="587.187"/>
      <point x="85.378" y="558.769" type="curve"/>
      <point x="87.121" y="538.861" type="line"/>
      <point x="137.426" y="509.831" type="line"/>
      <point x="216.167" y="559.712"/>
      <point x="261.964" y="625.814"/>
      <point x="256.652" y="686.486" type="curve" smooth="yes"/>
      <point x="252.834" y="730.094"/>
      <point x="223.717" y="757.158"/>
      <point x="179.161" y="753.257" type="curve" smooth="yes"/>
      <point x="152.617" y="750.933"/>
      <point x="113.264" y="731.248"/>
    </contour>
  </outline>
</glyph>
<glyph name="tbar.sc" format="2">
  <advance width="499"/>
  <anchor x="219" y="0" name="bottom"/>
  <anchor x="250" y="252" name="center"/>
  <anchor x="281" y="503" name="top"/>
  <outline>
    <contour>
      <point x="420" y="232" type="line"/>
      <point x="269" y="228" type="line"/>
      <point x="60" y="229" type="line"/>
      <point x="52" y="171" type="line"/>
      <point x="63" y="161" type="line"/>
      <point x="243" y="162" type="line"/>
      <point x="430" y="162" type="line"/>
      <point x="435" y="217" type="line"/>
    </contour>
    <component base="t.sc"/>
  </outline>
</glyph>
<glyph name="tildecomb_acutecomb" format="2">
  <anchor x="212" y="472" name="_top"/>
  <anchor x="262" y="880" name="top"/>
  <outline>
    <contour>
      <point x="102.96" y="504.098" type="line"/>
      <point x="117.775" y="504.098" type="line"/>
      <point x="117.775" y="504.098"/>
      <point x="162.218" y="557.8"/>
      <point x="184.44" y="557.8" type="curve" smooth="yes"/>
      <point x="211.291" y="557.8"/>
      <point x="288.14" y="526.319"/>
      <point x="319.621" y="526.319" type="curve"/>
      <point x="335.361" y="530.023" type="line"/>
      <point x="421.47" y="636.501" type="line"/>
      <point x="423.322" y="651.316" type="line"/>
      <point x="374.249" y="701.314" type="line"/>
      <point x="359.435" y="701.314" type="line"/>
      <point x="359.435" y="701.314"/>
      <point x="314.066" y="647.612"/>
      <point x="292.77" y="647.612" type="curve" smooth="yes"/>
      <point x="265.919" y="647.612"/>
      <point x="189.069" y="679.093"/>
      <point x="157.589" y="679.093" type="curve"/>
      <point x="141.848" y="675.389" type="line"/>
      <point x="55.74" y="568.91" type="line"/>
      <point x="53.888" y="554.096" type="line"/>
    </contour>
    <contour>
      <point x="396" y="752" type="curve"/>
      <point x="403" y="768" type="line"/>
      <point x="367" y="876" type="line"/>
      <point x="351" y="881" type="line"/>
      <point x="351" y="881"/>
      <point x="225" y="827"/>
      <point x="102" y="781" type="curve"/>
      <point x="123" y="710" type="line"/>
      <point x="142" y="697" type="line"/>
      <point x="266" y="728"/>
      <point x="396" y="752"/>
    </contour>
  </outline>
</glyph>
<glyph name="tildecomb_dieresiscomb" format="2">
  <anchor x="184" y="472" name="_top"/>
  <anchor x="184" y="849" name="top"/>
  <outline>
    <contour>
      <point x="87.96" y="486.098" type="line"/>
      <point x="102.775" y="486.098" type="line"/>
      <point x="102.775" y="486.098"/>
      <point x="147.218" y="539.8"/>
      <point x="169.44" y="539.8" type="curve" smooth="yes"/>
      <point x="196.291" y="539.8"/>
      <point x="273.14" y="508.319"/>
      <point x="304.621" y="508.319" type="curve"/>
      <point x="320.361" y="512.023" type="line"/>
      <point x="406.47" y="618.501" type="line"/>
      <point x="408.322" y="633.316" type="line"/>
      <point x="359.249" y="683.314" type="line"/>
      <point x="344.435" y="683.314" type="line"/>
      <point x="344.435" y="683.314"/>
      <point x="299.066" y="629.612"/>
      <point x="277.77" y="629.612" type="curve" smooth="yes"/>
      <point x="250.919" y="629.612"/>
      <point x="174.069" y="661.093"/>
      <point x="142.589" y="661.093" type="curve"/>
      <point x="126.848" y="657.389" type="line"/>
      <point x="40.74" y="550.91" type="line"/>
      <point x="38.888" y="536.096" type="line"/>
    </contour>
    <contour>
      <point x="313.57" y="684.605" type="curve" smooth="yes"/>
      <point x="366.273" y="684.605"/>
      <point x="402.332" y="721.589"/>
      <point x="402.332" y="776.141" type="curve" smooth="yes"/>
      <point x="402.332" y="815.899"/>
      <point x="379.217" y="839.014"/>
      <point x="337.61" y="839.014" type="curve" smooth="yes"/>
      <point x="283.983" y="839.014"/>
      <point x="247.924" y="802.03"/>
      <point x="247.924" y="746.554" type="curve" smooth="yes"/>
      <point x="247.924" y="706.796"/>
      <point x="270.114" y="684.605"/>
    </contour>
    <contour>
      <point x="138.821" y="684.605" type="curve" smooth="yes"/>
      <point x="192.448" y="684.605"/>
      <point x="228.507" y="721.589"/>
      <point x="228.507" y="776.141" type="curve" smooth="yes"/>
      <point x="228.507" y="815.899"/>
      <point x="205.392" y="839.014"/>
      <point x="163.785" y="839.014" type="curve" smooth="yes"/>
      <point x="110.158" y="839.014"/>
      <point x="74.099" y="802.03"/>
      <point x="74.099" y="746.554" type="curve" smooth="yes"/>
      <point x="74.099" y="706.796"/>
      <point x="97.214" y="684.605"/>
    </contour>
  </outline>
</glyph>
<glyph name="tildecomb_macroncomb" format="2">
  <anchor x="199" y="472" name="_top"/>
  <anchor x="199" y="869" name="top"/>
  <outline>
    <contour>
      <point x="102.96" y="503.098" type="line"/>
      <point x="117.775" y="503.098" type="line"/>
      <point x="117.775" y="503.098"/>
      <point x="162.218" y="556.8"/>
      <point x="184.44" y="556.8" type="curve" smooth="yes"/>
      <point x="211.291" y="556.8"/>
      <point x="288.14" y="525.319"/>
      <point x="319.621" y="525.319" type="curve"/>
      <point x="335.361" y="529.023" type="line"/>
      <point x="421.47" y="635.501" type="line"/>
      <point x="423.322" y="650.316" type="line"/>
      <point x="374.249" y="700.314" type="line"/>
      <point x="359.435" y="700.314" type="line"/>
      <point x="359.435" y="700.314"/>
      <point x="314.066" y="646.612"/>
      <point x="292.77" y="646.612" type="curve" smooth="yes"/>
      <point x="265.919" y="646.612"/>
      <point x="189.069" y="678.093"/>
      <point x="157.589" y="678.093" type="curve"/>
      <point x="141.848" y="674.389" type="line"/>
      <point x="55.74" y="567.91" type="line"/>
      <point x="53.888" y="553.096" type="line"/>
    </contour>
    <contour>
      <point x="410" y="834" type="line"/>
      <point x="401" y="852" type="line"/>
      <point x="401" y="852"/>
      <point x="329" y="846"/>
      <point x="280" y="846" type="curve" smooth="yes"/>
      <point x="223" y="846"/>
      <point x="131" y="847"/>
      <point x="131" y="847" type="curve"/>
      <point x="99" y="738" type="line"/>
      <point x="113" y="723" type="line"/>
      <point x="113" y="723"/>
      <point x="185" y="724"/>
      <point x="242" y="724" type="curve" smooth="yes"/>
      <point x="378" y="725" type="line"/>
    </contour>
  </outline>
</glyph>
